<?xml version="1.0" encoding="utf-8"?>
<!-- Generator: Adobe Illustrator 21.1.0, SVG Export Plug-In . SVG Version: 6.00 Build 0)  -->
<svg version="1.1" id="Layer_1" xmlns="http://www.w3.org/2000/svg" xmlns:xlink="http://www.w3.org/1999/xlink" x="0px" y="0px"
	 viewBox="0 0 82.1 66.3" style="enable-background:new 0 0 82.1 66.3;" xml:space="preserve">
<title>02</title>
<path d="M6.7,34.7c2.2,0,4.1-1.7,4.2-3.9l9.8-1.5c1,2.1,3.5,3.1,5.7,2.1c1.5-0.7,2.5-2.2,2.5-3.9c0-0.7-0.2-1.4-0.5-2l9.1-8.1
	c1.8,1.5,4.4,1.3,5.9-0.5c0,0,0.1-0.1,0.1-0.1l8,4.8c-0.6,2.3,0.8,4.6,3.1,5.2c2.3,0.6,4.6-0.8,5.2-3.1c0.3-1,0.1-2.2-0.4-3.1
	L73.1,8.1c2,1.4,4.8,0.9,6.2-1.1c1.4-2,0.9-4.8-1.1-6.2c-2-1.4-4.8-0.9-6.2,1.1c-1,1.4-1.1,3.2-0.2,4.7L58.1,19.2
	c-1.8-1.2-4.2-0.9-5.6,0.7L44.4,15c0.5-2.3-1.1-4.6-3.4-5c-2.3-0.5-4.6,1.1-5,3.4c-0.2,0.8-0.1,1.7,0.2,2.5L27.1,24
	c-1.9-1.3-4.6-0.9-5.9,1c-0.5,0.7-0.7,1.5-0.8,2.3l-9.8,1.4c-0.9-2.2-3.4-3.2-5.6-2.3s-3.2,3.4-2.3,5.6C3.5,33.7,5,34.7,6.7,34.7
	L6.7,34.7z"/>
<path d="M77.8,32.2c-2.3,0-4.3,1.9-4.3,4.2c0,1.1,0.4,2.1,1.1,2.9L61.4,58.1c-1.5-0.7-3.3-0.4-4.5,0.7l-13.7-9
	c0.1-0.4,0.2-0.8,0.2-1.3c0-2.4-2-4.2-4.4-4.2c-2.4,0-4.2,2-4.2,4.4c0,0.5,0.1,1,0.3,1.5L26.7,57c-1.8-1.4-4.4-1.1-5.9,0.6L8.5,51.3
	c0.6-2.3-0.8-4.7-3.2-5.2s-4.7,0.8-5.2,3.2c-0.6,2.3,0.8,4.7,3.2,5.2c1.6,0.4,3.3-0.1,4.3-1.4L20,59.4c-0.5,2.3,0.9,4.6,3.2,5.1
	c2.3,0.5,4.6-0.9,5.1-3.2c0.2-1,0.1-2-0.3-2.8l8.4-6.7c1.7,1.5,4.3,1.4,5.8-0.2l13.5,8.9c-0.2,0.5-0.3,1-0.3,1.5
	c0,2.4,1.9,4.3,4.3,4.3s4.3-1.9,4.3-4.3l0,0c0-1-0.4-1.9-1-2.7l13.3-19c0.5,0.2,1,0.3,1.6,0.3c2.4,0,4.3-1.9,4.3-4.3
	C82.1,34.1,80.2,32.2,77.8,32.2L77.8,32.2z"/>
</svg>
