<?xml version="1.0" encoding="utf-8"?>
<svg version="1.1" id="Layer_1" xmlns="http://www.w3.org/2000/svg" xmlns:xlink="http://www.w3.org/1999/xlink" x="0px" y="0px"
	 viewBox="0 0 92.2 52" style="enable-background:new 0 0 92.2 52;" xml:space="preserve">
<g>
	<path d="M46.2,1c24.9,0,45,20.1,45,45c0,1.7-0.1,3.4-0.3,5H1.5c-0.2-1.6-0.3-3.3-0.3-5C1.2,21.1,21.3,1,46.2,1 M45.2,14h2V4h-2V14
		 M33.2,16.7l1.9-0.8l-3.8-9.3l-1.9,0.8L33.2,16.7 M59.6,16.9l3.9-9.2l-1.8-0.8l-3.9,9.2L59.6,16.9 M69.5,24.1l7.1-7.1l-1.4-1.4
		l-7.1,7.1L69.5,24.1 M22.9,24.1l1.4-1.4l-7.1-7.1L15.8,17L22.9,24.1 M46.5,46.6c1.8,0,3.5-0.9,4.5-2.6l10.8-18l-18,10.8
		c-2.9,1.8-3.4,5.8-1,8.2C43.8,46.1,45.1,46.6,46.5,46.6 M16.3,34.5l0.8-1.8l-9.2-3.9l-0.8,1.8L16.3,34.5 M76.2,34.9l9.3-3.8
		l-0.8-1.9L75.5,33L76.2,34.9 M78.2,47h10v-2h-10V47 M4.2,47h10v-2h-10L4.2,47 M46.2,0c-25.4,0-46,20.6-46,46c0,1.7,0.1,3.4,0.3,5.1
		L0.6,52h0.9h89.4h0.9l0.1-0.9c0.2-1.7,0.3-3.5,0.3-5.1C92.2,20.6,71.6,0,46.2,0L46.2,0z M59.1,15.6l3.1-7.4l0,0L59.1,15.6
		L59.1,15.6L59.1,15.6z M46.5,45.6c-1.1,0-2.2-0.4-3-1.3c-0.9-0.9-1.4-2.2-1.2-3.5s0.9-2.5,2-3.1l14.6-8.8l-8.8,14.6
		C49.4,44.9,48,45.6,46.5,45.6L46.5,45.6z M76.8,33.6l6-2.4L76.8,33.6L76.8,33.6L76.8,33.6z M15.8,33.1l-3.9-1.7L15.8,33.1
		L15.8,33.1L15.8,33.1z"/>
</g>
</svg>
